<svg xmlns="http://www.w3.org/2000/svg" width="1200" height="630" viewBox="0 0 1200 630">
  <defs>
    <linearGradient id="bg" x1="0" y1="0" x2="0" y2="1">
      <stop offset="0%" stop-color="#0c1020"/>
      <stop offset="100%" stop-color="#06070b"/>
    </linearGradient>
    <radialGradient id="glowRed" cx="14%" cy="10%" r="50%">
      <stop offset="0%" stop-color="#e62429" stop-opacity="0.5"/>
      <stop offset="100%" stop-color="#e62429" stop-opacity="0"/>
    </radialGradient>
    <radialGradient id="glowBlue" cx="92%" cy="8%" r="45%">
      <stop offset="0%" stop-color="#7aa7ff" stop-opacity="0.3"/>
      <stop offset="100%" stop-color="#7aa7ff" stop-opacity="0"/>
    </radialGradient>
  </defs>

  <rect width="1200" height="630" fill="url(#bg)"/>
  <rect width="1200" height="630" fill="url(#glowRed)"/>
  <rect width="1200" height="630" fill="url(#glowBlue)"/>

  <rect x="90" y="78" width="300" height="36" rx="18" fill="rgba(255,255,255,0.06)" stroke="rgba(255,255,255,0.16)"/>
  <circle cx="112" cy="96" r="5" fill="#e62429"/>
  <text x="128" y="101" font-family="Arial, Helvetica, sans-serif" font-size="14" font-weight="700"
    letter-spacing="1" fill="#aeb7cb">MARVEL CINEMATIC UNIVERSE</text>

  <text x="88" y="240" font-family="Arial, Helvetica, sans-serif" font-size="64" font-weight="800"
    fill="#f8f8fc">Marvel Chronological</text>
  <text x="88" y="320" font-family="Arial, Helvetica, sans-serif" font-size="64" font-weight="800"
    fill="#f8f8fc">Watchlist</text>

  <text x="90" y="382" font-family="Arial, Helvetica, sans-serif" font-size="24" fill="#aeb7cb">The full MCU timeline, movies, series, shorts and</text>
  <text x="90" y="414" font-family="Arial, Helvetica, sans-serif" font-size="24" fill="#aeb7cb">specials in chronological order</text>

  <rect x="90" y="458" width="380" height="48" rx="24" fill="#e62429"/>
  <path d="M114 482 l6 6 12 -13" stroke="#ffffff" stroke-width="3" fill="none" stroke-linecap="round" stroke-linejoin="round"/>
  <text x="142" y="489" font-family="Arial, Helvetica, sans-serif" font-size="18" font-weight="700"
    fill="#ffffff">Keep track of your progress</text>

  <line x1="1000" y1="150" x2="1000" y2="510" stroke="rgba(255,255,255,0.16)" stroke-width="3"/>
  <circle cx="1000" cy="150" r="14" fill="#111726" stroke="#ff5a5f" stroke-width="3"/>
  <circle cx="1000" cy="240" r="14" fill="#111726" stroke="#7aa7ff" stroke-width="3"/>
  <circle cx="1000" cy="330" r="14" fill="#111726" stroke="#ffd166" stroke-width="3"/>
  <circle cx="1000" cy="420" r="14" fill="#111726" stroke="#a783ff" stroke-width="3"/>
  <circle cx="1000" cy="510" r="14" fill="#111726" stroke="#ff5a5f" stroke-width="3"/>
</svg>
